<?xml version="1.0" encoding="UTF-8"?>
<svg width="40px" height="40px" viewBox="0 0 40 40" version="1.1" xmlns="http://www.w3.org/2000/svg" xmlns:xlink="http://www.w3.org/1999/xlink">
    <!-- Generator: Sketch 50.2 (55047) - http://www.bohemiancoding.com/sketch -->
    <title>fb copy 13</title>
    <desc>Created with Sketch.</desc>
    <defs></defs>
    <g id="gift-news" stroke="none" stroke-width="1" fill="none" fill-rule="evenodd">
        <g id="独立资讯页面-移动端" transform="translate(-66.000000, -2015.000000)">
            <g id="fb-copy-13" transform="translate(67.000000, 2016.000000)">
                <path d="M38,19 C38,29.49275 29.49275,38 19,38 C8.50725,38 0,29.49275 0,19 C0,8.50725 8.50725,0 19,0 C29.49275,0 38,8.50725 38,19 Z" id="fb-copy" stroke="#4266B2"></path>
                <path d="M20.4086698,19 L22.5739835,19 L22.862692,16.3218626 L20.4086698,16.3218626 L20.4111803,14.9827939 C20.4111803,14.2846895 20.478964,13.9107936 21.4932095,13.9107936 L22.8463737,13.9107936 L22.8463737,11.2338984 L20.6798047,11.2338984 C18.0776625,11.2338984 17.1600716,12.5332174 17.1600716,14.7157255 L17.1600716,16.3218626 L15.538283,16.3218626 L15.538283,19 L17.1600716,19 L17.1600716,26.7661016 L20.4086698,26.7661016 L20.4086698,19 Z" id="Path" fill="#4266B2"></path>
            </g>
        </g>
    </g>
</svg>