<?xml version="1.0" encoding="UTF-8"?>
<svg width="40px" height="40px" viewBox="0 0 40 40" version="1.1" xmlns="http://www.w3.org/2000/svg" xmlns:xlink="http://www.w3.org/1999/xlink">
    <!-- Generator: Sketch 50.2 (55047) - http://www.bohemiancoding.com/sketch -->
    <title>gp copy 11</title>
    <desc>Created with Sketch.</desc>
    <defs></defs>
    <g id="gift-news" stroke="none" stroke-width="1" fill="none" fill-rule="evenodd">
        <g id="独立资讯页面-移动端" transform="translate(-270.000000, -2015.000000)">
            <g id="gp-copy-11" transform="translate(271.000000, 2016.000000)">
                <path d="M38,19 C38,22.4470486 37.1506076,25.6260851 35.4518229,28.5371094 C33.7530382,31.4481337 31.4481337,33.7530382 28.5371094,35.4518229 C25.6260851,37.1506076 22.4470486,38 19,38 C15.5529514,38 12.3739149,37.1506076 9.46289064,35.4518229 C6.55186633,33.7530382 4.24696181,31.4481337 2.54817709,28.5371094 C0.849392363,25.6260851 4.30674015e-15,22.4470486 0,19 C-4.30674015e-15,15.5529514 0.849392363,12.3739149 2.54817709,9.46289064 C4.24696181,6.55186633 6.55186633,4.24696181 9.46289064,2.54817709 C12.3739149,0.849392363 15.5529514,4.30674015e-15 19,0 C22.4470486,-4.30674015e-15 25.6260851,0.849392363 28.5371094,2.54817709 C31.4481337,4.24696181 33.7530382,6.55186633 35.4518229,9.46289064 C37.1506076,12.3739149 38,15.5529514 38,19 Z" id="gp-copy" stroke="#EE463E" fill-rule="nonzero"></path>
                <path d="M21.7040101,19.1496734 C21.7040101,20.9790153 21.1354262,22.4757495 19.9982583,23.6398761 C18.8610903,24.8040028 17.3682074,25.3860661 15.5196093,25.3860661 C13.7270293,25.3860661 12.2033363,24.7624268 10.9485304,23.5151483 C9.69372444,22.2678698 9.06632145,20.7628203 9.06632143,19 C9.06632141,17.2371797 9.6937244,15.7321302 10.9485304,14.4848517 C12.2033364,13.2375732 13.7270293,12.6139339 15.5196093,12.6139339 C17.1889494,12.6139339 18.6286151,13.1682799 19.8386066,14.276972 L18.0908411,15.9566404 C17.4186237,15.3025121 16.5615464,14.9754479 15.5196093,14.9754479 C14.4104504,14.9754479 13.4637441,15.3718053 12.6794904,16.1645201 C11.8952367,16.957235 11.5031098,17.9023949 11.5031098,19 C11.5031098,20.0976051 11.8952367,21.042765 12.6794904,21.8354799 C13.4637441,22.6281947 14.4104504,23.0245521 15.5196093,23.0245521 C16.4158992,23.0245521 17.2141575,22.7778681 17.9143841,22.2845001 C18.6146106,21.7911322 19.0319456,21.1231452 19.1663891,20.2805393 L15.5196093,20.2805393 L15.5196093,18.0853291 L21.6031775,18.0853291 C21.6703992,18.4290236 21.7040101,18.783805 21.7040101,19.1496734 Z M27.5018859,19.9146709 L27.5018859,21.7440128 L25.6532878,21.7440128 L25.6532878,19.9146709 L23.8046898,19.9146709 L23.8046898,18.0853291 L25.6532878,18.0853291 L25.6532878,16.2559872 L27.5018859,16.2559872 L27.5018859,18.0853291 L29.3336786,18.0853291 L29.3336786,19.9146709 L27.5018859,19.9146709 Z" id="Combined-Shape" fill="#EE463E"></path>
            </g>
        </g>
    </g>
</svg>