<?xml version="1.0" encoding="UTF-8"?>
<svg width="40px" height="40px" viewBox="0 0 40 40" version="1.1" xmlns="http://www.w3.org/2000/svg" xmlns:xlink="http://www.w3.org/1999/xlink">
    <!-- Generator: Sketch 50.2 (55047) - http://www.bohemiancoding.com/sketch -->
    <title>qq copy 16</title>
    <desc>Created with Sketch.</desc>
    <defs></defs>
    <g id="gift-news" stroke="none" stroke-width="1" fill="none" fill-rule="evenodd">
        <g id="独立资讯页面-移动端" transform="translate(-202.000000, -2015.000000)">
            <g id="qq-copy-16" transform="translate(203.000000, 2016.000000)">
                <path d="M0,18.9998479 C0,29.4935658 8.50684987,38 19,38 C29.4938018,38 38,29.4935658 38,18.9998479 C38,8.50678179 29.4938453,0 19,0 C8.50684991,4.24578601e-08 0,8.50678183 0,18.9998479" id="qq-copy" stroke="#18BAF8" fill-rule="nonzero"></path>
                <path d="M11.773267,22.7862839 C11.1511738,22.3309913 11.206548,21.1732774 11.6094257,20.0644673 C12.0155625,18.9474187 13.0386669,17.8710353 13.0501921,17.6335525 C13.0908117,16.7503218 12.9620496,16.6032584 13.0501921,16.3712875 C13.2468016,15.8511122 13.485838,16.0506858 13.485838,15.7812454 C13.485838,12.3821631 16.0379105,9.62701098 19.1861816,9.62701098 C22.3344526,9.62701098 24.8874732,12.3821631 24.8874732,15.7812454 C24.8874732,15.9113918 25.2289623,15.7812454 25.393248,16.3712875 C25.4264903,16.4932246 25.4495406,16.9636165 25.4098987,17.6335525 C25.3905222,17.9555029 26.2774872,18.3473495 26.7352948,20.0644673 C27.1935467,21.7820543 26.7352948,22.591724 26.5059169,22.7862839 C26.222113,23.0269625 25.893986,22.6095498 25.6286402,22.1912283 C25.3817524,21.8003199 25.1888167,21.4093822 25.1394569,21.5582634 C24.8893397,22.3072137 24.7721028,22.8082144 24.0346392,23.6243049 C23.9958566,23.6676675 24.8874731,23.9868913 25.1394569,24.6664439 C25.3812783,25.3185834 25.8515295,26.3518094 22.7738317,26.676076 C21.804709,26.7774606 20.9813843,26.4961462 20.4050067,26.2157405 C19.9061055,25.9725699 19.5927628,25.7291354 19.5327962,25.7341782 C19.2914488,25.7551705 19.3984938,25.7341782 19.1396068,25.7341782 C18.9277982,25.7341782 18.9139324,25.7496879 18.7141231,25.7341782 C18.6591933,25.7305134 18.0588172,26.676076 15.3743088,26.676076 C13.2943541,26.676076 12.7548629,25.3797718 13.1739174,24.6664439 C13.5920238,23.9540249 14.2907342,23.7462128 14.1919554,23.6334524 C13.7073941,23.0776548 13.3732823,22.4844462 13.1739174,21.9469435 C13.1240539,21.8131323 13.0825455,21.6829565 13.0502217,21.5582927 C13.0137796,21.4199077 12.860545,21.8067407 12.6413591,22.1921665 C12.4539934,22.5237335 12.2177124,22.8552712 11.9657286,22.8552712 C11.9029476,22.8552419 11.8378554,22.8342496 11.773267,22.7862839" id="Path" fill="#18BAF8"></path>
            </g>
        </g>
    </g>
</svg>