<?xml version="1.0" encoding="UTF-8"?>
<svg width="40px" height="40px" viewBox="0 0 40 40" version="1.1" xmlns="http://www.w3.org/2000/svg" xmlns:xlink="http://www.w3.org/1999/xlink">
    <!-- Generator: Sketch 50.2 (55047) - http://www.bohemiancoding.com/sketch -->
    <title>tw copy 12</title>
    <desc>Created with Sketch.</desc>
    <defs></defs>
    <g id="gift-news" stroke="none" stroke-width="1" fill="none" fill-rule="evenodd">
        <g id="独立资讯页面-移动端" transform="translate(-134.000000, -2015.000000)">
            <g id="tw-copy-12" transform="translate(135.000000, 2016.000000)">
                <path d="M38,19 C38,29.49275 29.49275,38 19,38 C8.50725,38 0,29.49275 0,19 C0,8.50725 8.50725,0 19,0 C29.49275,0 38,8.50725 38,19 Z" id="Twitter-Copy" stroke="#1DA1F3"></path>
                <path d="M28.2142713,13.7781236 C27.5770786,14.0576687 26.901213,14.2413165 26.2091109,14.3229705 C26.9382257,13.8907669 27.483471,13.2107484 27.7430524,12.4098708 C27.0577377,12.8126867 26.3078606,13.0965643 25.5258435,13.2492295 C24.4458904,12.1033792 22.7218453,11.8203503 21.3258515,12.5597352 C19.9298578,13.2991202 19.2116,14.8757094 19.5760848,16.4005059 C16.7688111,16.2616241 14.1531321,14.9497889 12.3800762,12.7915091 C11.4505788,14.3693956 11.9239938,16.3907061 13.4601595,17.4030732 C12.906264,17.3859125 12.364565,17.2378027 11.8803362,16.9711225 L11.8790961,17.0140722 C11.8790961,18.687881 13.0819444,20.0855849 14.6803685,20.400958 C14.1667142,20.540792 13.6274327,20.5617859 13.1042653,20.4623146 C13.5614307,21.8689292 14.8714871,22.8324839 16.364356,22.8601316 C14.9020368,23.9976641 13.0423472,24.5124939 11.1958287,24.2909682 C12.7924326,25.3057544 14.6503252,25.844622 16.5478834,25.8432909 C22.9688609,25.8432909 26.4806818,20.5788922 26.4806818,16.0139591 C26.4806818,15.864249 26.4769616,15.7145388 26.4707614,15.5660558 C27.1546535,15.0777074 27.7447113,14.4721851 28.2130312,13.7781236 L28.2142713,13.7781236 Z" id="Path" fill="#1DA1F3"></path>
            </g>
        </g>
    </g>
</svg>